STARTFONT 2.1
FONT -B&H-Lucida Bright-DemiBold-R-Normal--12-120-72-72-P-71-ISO8859-1
SIZE 12 72 72
FONTBOUNDINGBOX 20 15 -7 -3

STARTPROPERTIES 22
FONTNAME_REGISTRY "-"
FOUNDRY "B&H"
FAMILY_NAME "Lucida Bright"
WEIGHT_NAME "DemiBold"
SLANT "R"
SETWIDTH_NAME "Normal"
ADD_STYLE_NAME ""
PIXEL_SIZE 12
POINT_SIZE 120
RESOLUTION_X 72
RESOLUTION_Y 72
SPACING "P"
CHARSET_REGISTRY "ISO8859"
CHARSET_ENCODING "1"
FULL_NAME "LucidaBright-Demi"
AVERAGE_WIDTH 71
WEIGHT 10
X_HEIGHT 6
QUAD_WIDTH 7
DEFAULT_CHAR 32
FONT_DESCENT 1
FONT_ASCENT 11
ENDPROPERTIES

CHARS 190

STARTCHAR space
ENCODING 32
SWIDTH 333 0
DWIDTH 4 0
BBX 1 1 0 0
BITMAP
00
ENDCHAR

STARTCHAR exclam
ENCODING 33
SWIDTH 265 0
DWIDTH 3 0
BBX 2 9 1 0
BITMAP
C0
C0
C0
C0
80
80
80
C0
C0
ENDCHAR

STARTCHAR quotedbl
ENCODING 34
SWIDTH 461 0
DWIDTH 6 0
BBX 5 3 0 6
BITMAP
D8
48
48
ENDCHAR

STARTCHAR numbersign
ENCODING 35
SWIDTH 663 0
DWIDTH 8 0
BBX 7 9 0 0
BITMAP
16
14
14
7E
24
28
FE
48
58
ENDCHAR

STARTCHAR dollar
ENCODING 36
SWIDTH 623 0
DWIDTH 7 0
BBX 6 11 1 -1
BITMAP
20
7C
E4
E0
60
30
3C
2C
AC
F8
20
ENDCHAR

STARTCHAR percent
ENCODING 37
SWIDTH 759 0
DWIDTH 9 0
BBX 9 9 0 0
BITMAP
6180
9300
9200
6400
0800
1300
2480
6480
C300
ENDCHAR

STARTCHAR ampersand
ENCODING 38
SWIDTH 765 0
DWIDTH 9 0
BBX 9 9 0 0
BITMAP
1C00
3600
3600
1C00
7B80
CD00
CD00
E600
7F80
ENDCHAR

STARTCHAR quoteright
ENCODING 39
SWIDTH 265 0
DWIDTH 3 0
BBX 2 4 1 5
BITMAP
C0
C0
40
80
ENDCHAR

STARTCHAR parenleft
ENCODING 40
SWIDTH 327 0
DWIDTH 4 0
BBX 3 11 0 -2
BITMAP
20
40
40
C0
C0
C0
C0
C0
40
40
20
ENDCHAR

STARTCHAR parenright
ENCODING 41
SWIDTH 327 0
DWIDTH 4 0
BBX 3 11 1 -2
BITMAP
80
40
40
60
60
60
60
60
40
40
80
ENDCHAR

STARTCHAR asterisk
ENCODING 42
SWIDTH 434 0
DWIDTH 5 0
BBX 5 5 0 4
BITMAP
20
A8
D8
F0
50
ENDCHAR

STARTCHAR plus
ENCODING 43
SWIDTH 623 0
DWIDTH 7 0
BBX 7 7 0 0
BITMAP
10
10
10
FE
10
10
10
ENDCHAR

STARTCHAR comma
ENCODING 44
SWIDTH 265 0
DWIDTH 3 0
BBX 2 4 1 -2
BITMAP
C0
C0
40
80
ENDCHAR

STARTCHAR minus
ENCODING 45
SWIDTH 623 0
DWIDTH 7 0
BBX 7 1 0 3
BITMAP
FE
ENDCHAR

STARTCHAR period
ENCODING 46
SWIDTH 265 0
DWIDTH 3 0
BBX 2 2 1 0
BITMAP
C0
C0
ENDCHAR

STARTCHAR slash
ENCODING 47
SWIDTH 527 0
DWIDTH 6 0
BBX 6 11 0 -2
BITMAP
04
04
08
08
10
10
20
20
40
40
80
ENDCHAR

STARTCHAR zero
ENCODING 48
SWIDTH 623 0
DWIDTH 7 0
BBX 7 9 0 0
BITMAP
38
6C
C6
C6
C6
C6
C6
6C
38
ENDCHAR

STARTCHAR one
ENCODING 49
SWIDTH 623 0
DWIDTH 7 0
BBX 5 9 1 0
BITMAP
F0
30
30
30
30
30
30
30
F8
ENDCHAR

STARTCHAR two
ENCODING 50
SWIDTH 623 0
DWIDTH 7 0
BBX 6 9 1 0
BITMAP
F8
8C
8C
0C
18
20
40
FC
FC
ENDCHAR

STARTCHAR three
ENCODING 51
SWIDTH 623 0
DWIDTH 7 0
BBX 6 9 1 0
BITMAP
F8
8C
0C
08
78
1C
0C
8C
F8
ENDCHAR

STARTCHAR four
ENCODING 52
SWIDTH 623 0
DWIDTH 7 0
BBX 7 9 0 0
BITMAP
0C
1C
2C
2C
4C
CC
FE
0C
1E
ENDCHAR

STARTCHAR five
ENCODING 53
SWIDTH 623 0
DWIDTH 7 0
BBX 5 9 1 0
BITMAP
F8
80
80
80
F0
18
18
98
F0
ENDCHAR

STARTCHAR six
ENCODING 54
SWIDTH 623 0
DWIDTH 7 0
BBX 7 9 0 0
BITMAP
3C
64
C0
C0
FC
C6
C6
46
3C
ENDCHAR

STARTCHAR seven
ENCODING 55
SWIDTH 623 0
DWIDTH 7 0
BBX 7 9 1 0
BITMAP
FE
FE
04
0C
18
30
30
60
60
ENDCHAR

STARTCHAR eight
ENCODING 56
SWIDTH 623 0
DWIDTH 7 0
BBX 7 9 0 0
BITMAP
7C
C6
C6
E4
7C
CE
C6
C6
7C
ENDCHAR

STARTCHAR nine
ENCODING 57
SWIDTH 623 0
DWIDTH 7 0
BBX 7 9 0 0
BITMAP
78
CC
C6
C6
C6
7E
06
8C
F8
ENDCHAR

STARTCHAR colon
ENCODING 58
SWIDTH 265 0
DWIDTH 3 0
BBX 2 6 1 0
BITMAP
C0
C0
00
00
C0
C0
ENDCHAR

STARTCHAR semicolon
ENCODING 59
SWIDTH 265 0
DWIDTH 3 0
BBX 2 8 1 -2
BITMAP
C0
C0
00
00
C0
C0
40
80
ENDCHAR

STARTCHAR less
ENCODING 60
SWIDTH 623 0
DWIDTH 7 0
BBX 7 6 0 0
BITMAP
02
1C
E0
60
1C
02
ENDCHAR

STARTCHAR equal
ENCODING 61
SWIDTH 623 0
DWIDTH 7 0
BBX 7 3 0 2
BITMAP
FE
00
FE
ENDCHAR

STARTCHAR greater
ENCODING 62
SWIDTH 623 0
DWIDTH 7 0
BBX 7 6 0 0
BITMAP
80
70
0C
0E
70
80
ENDCHAR

STARTCHAR question
ENCODING 63
SWIDTH 505 0
DWIDTH 6 0
BBX 5 9 1 0
BITMAP
F0
98
18
10
20
60
60
60
60
ENDCHAR

STARTCHAR at
ENCODING 64
SWIDTH 861 0
DWIDTH 10 0
BBX 10 9 0 0
BITMAP
0F00
3080
4040
CF40
9240
A640
AE80
7B00
3C00
ENDCHAR

STARTCHAR A
ENCODING 65
SWIDTH 795 0
DWIDTH 10 0
BBX 10 9 0 0
BITMAP
0800
0C00
1C00
1600
2600
2300
7F00
4380
C3C0
ENDCHAR

STARTCHAR B
ENCODING 66
SWIDTH 639 0
DWIDTH 8 0
BBX 7 9 0 0
BITMAP
FC
66
66
64
7C
66
66
66
FC
ENDCHAR

STARTCHAR C
ENCODING 67
SWIDTH 711 0
DWIDTH 9 0
BBX 7 9 1 0
BITMAP
3E
62
C2
C0
C0
C0
C0
62
3E
ENDCHAR

STARTCHAR D
ENCODING 68
SWIDTH 794 0
DWIDTH 10 0
BBX 9 9 0 0
BITMAP
FE00
6300
6180
6180
6180
6180
6180
6300
FE00
ENDCHAR

STARTCHAR E
ENCODING 69
SWIDTH 601 0
DWIDTH 7 0
BBX 7 9 0 0
BITMAP
FE
62
60
64
7C
64
60
62
FE
ENDCHAR

STARTCHAR F
ENCODING 70
SWIDTH 584 0
DWIDTH 7 0
BBX 7 9 0 0
BITMAP
FE
62
60
64
7C
64
60
60
F0
ENDCHAR

STARTCHAR G
ENCODING 71
SWIDTH 753 0
DWIDTH 9 0
BBX 9 9 0 0
BITMAP
3F00
6100
C100
C000
C000
C000
C780
6300
3F00
ENDCHAR

STARTCHAR H
ENCODING 72
SWIDTH 798 0
DWIDTH 10 0
BBX 9 9 0 0
BITMAP
F780
6300
6300
6300
7F00
6300
6300
6300
F780
ENDCHAR

STARTCHAR I
ENCODING 73
SWIDTH 349 0
DWIDTH 4 0
BBX 4 9 0 0
BITMAP
F0
60
60
60
60
60
60
60
F0
ENDCHAR

STARTCHAR J
ENCODING 74
SWIDTH 452 0
DWIDTH 5 0
BBX 5 11 0 -2
BITMAP
78
30
30
30
30
30
30
30
30
B0
E0
ENDCHAR

STARTCHAR K
ENCODING 75
SWIDTH 747 0
DWIDTH 9 0
BBX 10 9 0 0
BITMAP
F380
6200
6400
7800
7800
6C00
6600
6300
F7C0
ENDCHAR

STARTCHAR L
ENCODING 76
SWIDTH 584 0
DWIDTH 7 0
BBX 7 9 0 0
BITMAP
F0
60
60
60
60
60
60
62
FE
ENDCHAR

STARTCHAR M
ENCODING 77
SWIDTH 904 0
DWIDTH 11 0
BBX 11 9 0 0
BITMAP
E0E0
71C0
71C0
5BC0
5AC0
4AC0
4CC0
4CC0
E1E0
ENDCHAR

STARTCHAR N
ENCODING 78
SWIDTH 788 0
DWIDTH 9 0
BBX 9 9 0 0
BITMAP
C380
6100
7100
5900
5D00
4D00
4700
4300
E100
ENDCHAR

STARTCHAR O
ENCODING 79
SWIDTH 810 0
DWIDTH 10 0
BBX 9 9 0 0
BITMAP
3E00
6300
C180
C180
C180
C180
C180
6300
3E00
ENDCHAR

STARTCHAR P
ENCODING 80
SWIDTH 614 0
DWIDTH 7 0
BBX 7 9 0 0
BITMAP
FC
66
66
66
66
7C
60
60
F0
ENDCHAR

STARTCHAR Q
ENCODING 81
SWIDTH 810 0
DWIDTH 10 0
BBX 10 11 1 -2
BITMAP
3E00
6300
C180
C180
C180
C180
C180
6300
3E00
0400
03C0
ENDCHAR

STARTCHAR R
ENCODING 82
SWIDTH 720 0
DWIDTH 9 0
BBX 9 9 0 0
BITMAP
FC00
6600
6600
6600
6800
7C00
6E00
6700
F380
ENDCHAR

STARTCHAR S
ENCODING 83
SWIDTH 556 0
DWIDTH 7 0
BBX 6 9 0 0
BITMAP
78
C8
C8
E0
78
1C
8C
8C
F8
ENDCHAR

STARTCHAR T
ENCODING 84
SWIDTH 714 0
DWIDTH 9 0
BBX 8 9 0 0
BITMAP
FF
99
18
18
18
18
18
18
3C
ENDCHAR

STARTCHAR U
ENCODING 85
SWIDTH 747 0
DWIDTH 9 0
BBX 9 9 0 0
BITMAP
F380
6100
6100
6100
6100
6100
6100
7300
3E00
ENDCHAR

STARTCHAR V
ENCODING 86
SWIDTH 753 0
DWIDTH 9 0
BBX 9 9 0 0
BITMAP
F180
6100
7100
3200
3A00
1E00
1C00
0C00
0800
ENDCHAR

STARTCHAR W
ENCODING 87
SWIDTH 955 0
DWIDTH 11 0
BBX 11 9 0 0
BITMAP
E660
6620
6640
6640
3B40
3BC0
3980
3180
1180
ENDCHAR

STARTCHAR X
ENCODING 88
SWIDTH 702 0
DWIDTH 8 0
BBX 8 9 0 0
BITMAP
F3
63
32
3C
1C
2C
26
47
C7
ENDCHAR

STARTCHAR Y
ENCODING 89
SWIDTH 717 0
DWIDTH 9 0
BBX 8 9 0 0
BITMAP
F3
62
32
3C
1C
18
18
18
3C
ENDCHAR

STARTCHAR Z
ENCODING 90
SWIDTH 639 0
DWIDTH 8 0
BBX 6 9 1 0
BITMAP
FC
8C
18
18
30
60
60
C4
FC
ENDCHAR

STARTCHAR bracketleft
ENCODING 91
SWIDTH 327 0
DWIDTH 4 0
BBX 3 11 1 -2
BITMAP
E0
C0
C0
C0
C0
C0
C0
C0
C0
C0
E0
ENDCHAR

STARTCHAR backslash
ENCODING 92
SWIDTH 527 0
DWIDTH 6 0
BBX 6 11 0 -2
BITMAP
80
40
40
20
20
10
10
08
08
04
04
ENDCHAR

STARTCHAR bracketright
ENCODING 93
SWIDTH 327 0
DWIDTH 4 0
BBX 3 11 0 -2
BITMAP
E0
60
60
60
60
60
60
60
60
60
E0
ENDCHAR

STARTCHAR asciicircum
ENCODING 94
SWIDTH 623 0
DWIDTH 7 0
BBX 7 7 0 2
BITMAP
10
10
28
28
44
44
82
ENDCHAR

STARTCHAR underscore
ENCODING 95
SWIDTH 500 0
DWIDTH 6 0
BBX 5 1 1 0
BITMAP
F8
ENDCHAR

STARTCHAR quoteleft
ENCODING 96
SWIDTH 265 0
DWIDTH 3 0
BBX 2 4 1 5
BITMAP
40
80
C0
C0
ENDCHAR

STARTCHAR a
ENCODING 97
SWIDTH 556 0
DWIDTH 7 0
BBX 7 6 0 0
BITMAP
78
0C
7C
CC
CC
76
ENDCHAR

STARTCHAR b
ENCODING 98
SWIDTH 640 0
DWIDTH 8 0
BBX 8 9 0 0
BITMAP
E0
60
60
7E
63
63
63
63
7E
ENDCHAR

STARTCHAR c
ENCODING 99
SWIDTH 541 0
DWIDTH 6 0
BBX 6 6 0 0
BITMAP
7C
C4
C0
C0
E0
3C
ENDCHAR

STARTCHAR d
ENCODING 100
SWIDTH 652 0
DWIDTH 8 0
BBX 8 9 0 0
BITMAP
0E
06
06
7E
C6
C6
C6
C6
7F
ENDCHAR

STARTCHAR e
ENCODING 101
SWIDTH 568 0
DWIDTH 7 0
BBX 6 6 0 0
BITMAP
78
CC
CC
FC
C0
7C
ENDCHAR

STARTCHAR f
ENCODING 102
SWIDTH 416 0
DWIDTH 5 0
BBX 5 9 0 0
BITMAP
38
68
60
F0
60
60
60
60
F0
ENDCHAR

STARTCHAR g
ENCODING 103
SWIDTH 599 0
DWIDTH 7 0
BBX 7 9 0 -3
BITMAP
7E
CC
CC
78
40
FE
46
C6
7C
ENDCHAR

STARTCHAR h
ENCODING 104
SWIDTH 654 0
DWIDTH 8 0
BBX 8 9 0 0
BITMAP
E0
60
60
7E
66
66
66
66
FF
ENDCHAR

STARTCHAR i
ENCODING 105
SWIDTH 325 0
DWIDTH 4 0
BBX 4 9 0 0
BITMAP
60
60
00
E0
60
60
60
60
F0
ENDCHAR

STARTCHAR j
ENCODING 106
SWIDTH 355 0
DWIDTH 4 0
BBX 4 12 0 -3
BITMAP
30
30
00
70
30
30
30
30
30
30
B0
E0
ENDCHAR

STARTCHAR k
ENCODING 107
SWIDTH 654 0
DWIDTH 8 0
BBX 9 9 0 0
BITMAP
E000
6000
6000
6700
6200
6C00
7C00
6E00
F780
ENDCHAR

STARTCHAR l
ENCODING 108
SWIDTH 325 0
DWIDTH 4 0
BBX 4 9 0 0
BITMAP
E0
60
60
60
60
60
60
60
F0
ENDCHAR

STARTCHAR m
ENCODING 109
SWIDTH 967 0
DWIDTH 12 0
BBX 12 6 0 0
BITMAP
FFE0
6660
6660
6660
6660
FFF0
ENDCHAR

STARTCHAR n
ENCODING 110
SWIDTH 654 0
DWIDTH 8 0
BBX 8 6 0 0
BITMAP
FE
66
66
66
66
FF
ENDCHAR

STARTCHAR o
ENCODING 111
SWIDTH 617 0
DWIDTH 7 0
BBX 7 6 0 0
BITMAP
7C
C6
C6
C6
C6
7C
ENDCHAR

STARTCHAR p
ENCODING 112
SWIDTH 652 0
DWIDTH 8 0
BBX 8 9 0 -3
BITMAP
FE
63
63
63
63
7E
60
60
F0
ENDCHAR

STARTCHAR q
ENCODING 113
SWIDTH 640 0
DWIDTH 8 0
BBX 8 9 0 -3
BITMAP
7E
C6
C6
C6
C6
7E
06
06
0F
ENDCHAR

STARTCHAR r
ENCODING 114
SWIDTH 462 0
DWIDTH 6 0
BBX 5 6 0 0
BITMAP
F8
68
60
60
60
F0
ENDCHAR

STARTCHAR s
ENCODING 115
SWIDTH 525 0
DWIDTH 6 0
BBX 5 6 1 0
BITMAP
F0
C0
F0
78
98
F0
ENDCHAR

STARTCHAR t
ENCODING 116
SWIDTH 389 0
DWIDTH 5 0
BBX 5 7 0 0
BITMAP
60
F0
60
60
60
60
38
ENDCHAR

STARTCHAR u
ENCODING 117
SWIDTH 654 0
DWIDTH 8 0
BBX 8 6 0 0
BITMAP
EE
66
66
66
66
7F
ENDCHAR

STARTCHAR v
ENCODING 118
SWIDTH 657 0
DWIDTH 8 0
BBX 8 6 0 0
BITMAP
F7
62
34
34
18
18
ENDCHAR

STARTCHAR w
ENCODING 119
SWIDTH 880 0
DWIDTH 11 0
BBX 11 6 0 0
BITMAP
E4E0
6640
6E80
3B80
3380
1100
ENDCHAR

STARTCHAR x
ENCODING 120
SWIDTH 608 0
DWIDTH 7 0
BBX 7 6 0 0
BITMAP
F6
64
38
2C
4E
CE
ENDCHAR

STARTCHAR y
ENCODING 121
SWIDTH 654 0
DWIDTH 8 0
BBX 8 9 0 -3
BITMAP
F3
62
74
34
38
18
10
10
60
ENDCHAR

STARTCHAR z
ENCODING 122
SWIDTH 584 0
DWIDTH 7 0
BBX 6 6 0 0
BITMAP
FC
98
38
70
E4
FC
ENDCHAR

STARTCHAR braceleft
ENCODING 123
SWIDTH 366 0
DWIDTH 4 0
BBX 4 11 0 -2
BITMAP
30
60
60
60
60
C0
60
60
60
60
30
ENDCHAR

STARTCHAR bar
ENCODING 124
SWIDTH 259 0
DWIDTH 3 0
BBX 1 11 1 -2
BITMAP
80
80
80
80
80
80
80
80
80
80
80
ENDCHAR

STARTCHAR braceright
ENCODING 125
SWIDTH 366 0
DWIDTH 4 0
BBX 4 11 8 -2
BITMAP
C0
60
60
60
60
30
60
60
60
60
C0
ENDCHAR

STARTCHAR asciitilde
ENCODING 126
SWIDTH 623 0
DWIDTH 7 0
BBX 7 2 0 2
BITMAP
72
9C
ENDCHAR

STARTCHAR exclamdown
ENCODING 161
SWIDTH 265 0
DWIDTH 3 0
BBX 2 9 1 -3
BITMAP
C0
C0
80
80
80
C0
C0
C0
C0
ENDCHAR

STARTCHAR cent
ENCODING 162
SWIDTH 623 0
DWIDTH 7 0
BBX 6 9 1 0
BITMAP
10
7C
D4
D0
D0
D0
D0
7C
10
ENDCHAR

STARTCHAR sterling
ENCODING 163
SWIDTH 623 0
DWIDTH 7 0
BBX 5 9 2 0
BITMAP
38
68
60
60
60
F0
60
C0
F8
ENDCHAR

STARTCHAR currency
ENCODING 164
SWIDTH 623 0
DWIDTH 7 0
BBX 7 8 0 0
BITMAP
82
C6
7C
44
44
44
7C
82
ENDCHAR

STARTCHAR yen
ENCODING 165
SWIDTH 623 0
DWIDTH 7 0
BBX 8 9 0 0
BITMAP
F3
61
32
1C
7E
18
7E
18
3C
ENDCHAR

STARTCHAR brokenbar
ENCODING 166
SWIDTH 259 0
DWIDTH 3 0
BBX 1 11 1 -2
BITMAP
80
80
80
80
80
00
80
80
80
80
80
ENDCHAR

STARTCHAR section
ENCODING 167
SWIDTH 623 0
DWIDTH 7 0
BBX 7 12 0 -3
BITMAP
7C
C4
C0
F0
B8
8C
C4
74
3C
06
86
FC
ENDCHAR

STARTCHAR dieresis
ENCODING 168
SWIDTH 617 0
DWIDTH 7 0
BBX 3 1 2 8
BITMAP
A0
ENDCHAR

STARTCHAR copyright
ENCODING 169
SWIDTH 855 0
DWIDTH 10 0
BBX 10 9 0 0
BITMAP
1E00
6180
4080
8E40
9240
9040
5080
6F80
1E00
ENDCHAR

STARTCHAR ordfeminine
ENCODING 170
SWIDTH 488 0
DWIDTH 6 0
BBX 6 5 0 4
BITMAP
F0
98
78
D8
EC
ENDCHAR

STARTCHAR guillemotleft
ENCODING 171
SWIDTH 566 0
DWIDTH 7 0
BBX 6 4 0 1
BITMAP
24
D8
48
24
ENDCHAR

STARTCHAR logicalnot
ENCODING 172
SWIDTH 623 0
DWIDTH 7 0
BBX 7 3 0 2
BITMAP
FE
02
02
ENDCHAR

STARTCHAR hyphen
ENCODING 173
SWIDTH 289 0
DWIDTH 3 0
BBX 3 1 0 3
BITMAP
E0
ENDCHAR

STARTCHAR registered
ENCODING 174
SWIDTH 623 0
DWIDTH 7 0
BBX 7 7 0 2
BITMAP
38
7C
AA
B2
AA
44
38
ENDCHAR

STARTCHAR macron
ENCODING 175
SWIDTH 617 0
DWIDTH 7 0
BBX 4 1 2 8
BITMAP
F0
ENDCHAR

STARTCHAR degree
ENCODING 176
SWIDTH 259 0
DWIDTH 3 0
BBX 2 3 1 6
BITMAP
C0
C0
C0
ENDCHAR

STARTCHAR plusminus
ENCODING 177
SWIDTH 623 0
DWIDTH 7 0
BBX 7 6 0 0
BITMAP
10
10
FE
10
00
FE
ENDCHAR

STARTCHAR twosuperior
ENCODING 178
SWIDTH 374 0
DWIDTH 4 0
BBX 4 5 -7 4
BITMAP
F0
90
30
40
F0
ENDCHAR

STARTCHAR threesuperior
ENCODING 179
SWIDTH 374 0
DWIDTH 4 0
BBX 4 5 -7 4
BITMAP
F0
10
E0
10
F0
ENDCHAR

STARTCHAR acute
ENCODING 180
SWIDTH 617 0
DWIDTH 7 0
BBX 3 2 3 7
BITMAP
60
80
ENDCHAR

STARTCHAR mu
ENCODING 181
SWIDTH 705 0
DWIDTH 8 0
BBX 8 8 0 -2
BITMAP
EE
66
66
66
66
7F
60
60
ENDCHAR

STARTCHAR paragraph
ENCODING 182
SWIDTH 623 0
DWIDTH 7 0
BBX 5 11 1 -2
BITMAP
F8
E8
E8
68
28
28
28
28
28
28
28
ENDCHAR

STARTCHAR periodcentered
ENCODING 183
SWIDTH 623 0
DWIDTH 7 0
BBX 2 2 3 3
BITMAP
C0
C0
ENDCHAR

STARTCHAR cedilla
ENCODING 184
SWIDTH 617 0
DWIDTH 7 0
BBX 2 3 3 -3
BITMAP
80
C0
C0
ENDCHAR

STARTCHAR onesuperior
ENCODING 185
SWIDTH 374 0
DWIDTH 4 0
BBX 3 5 -7 4
BITMAP
C0
40
40
40
E0
ENDCHAR

STARTCHAR ordmasculine
ENCODING 186
SWIDTH 488 0
DWIDTH 6 0
BBX 6 5 0 4
BITMAP
78
CC
CC
CC
78
ENDCHAR

STARTCHAR guillemotright
ENCODING 187
SWIDTH 566 0
DWIDTH 7 0
BBX 6 4 1 1
BITMAP
90
48
6C
90
ENDCHAR

STARTCHAR onequarter
ENCODING 188
SWIDTH 803 0
DWIDTH 10 0
BBX 9 9 -7 0
BITMAP
C300
4600
4400
4800
F900
1300
2700
4780
C380
ENDCHAR

STARTCHAR onehalf
ENCODING 189
SWIDTH 803 0
DWIDTH 10 0
BBX 9 9 -7 0
BITMAP
C300
4600
4400
4800
FF80
1480
2180
4200
C780
ENDCHAR

STARTCHAR threequarters
ENCODING 190
SWIDTH 803 0
DWIDTH 10 0
BBX 9 9 -7 0
BITMAP
F300
1600
E400
1800
F900
1300
2700
4780
C380
ENDCHAR

STARTCHAR questiondown
ENCODING 191
SWIDTH 505 0
DWIDTH 6 0
BBX 5 9 1 -3
BITMAP
30
30
30
30
20
40
C0
C8
78
ENDCHAR

STARTCHAR Agrave
ENCODING 192
SWIDTH 795 0
DWIDTH 10 0
BBX 10 12 0 0
BITMAP
1800
0400
0000
0800
0C00
1C00
1600
2600
2300
7F00
4380
C3C0
ENDCHAR

STARTCHAR Aacute
ENCODING 193
SWIDTH 795 0
DWIDTH 10 0
BBX 10 12 0 0
BITMAP
0600
0800
0000
0800
0C00
1C00
1600
2600
2300
7F00
4380
C3C0
ENDCHAR

STARTCHAR Acircumflex
ENCODING 194
SWIDTH 795 0
DWIDTH 10 0
BBX 10 12 0 0
BITMAP
0C00
1200
0000
0800
0C00
1C00
1600
2600
2300
7F00
4380
C3C0
ENDCHAR

STARTCHAR Atilde
ENCODING 195
SWIDTH 795 0
DWIDTH 10 0
BBX 10 11 0 0
BITMAP
1E00
0000
0800
0C00
1C00
1600
2600
2300
7F00
4380
C3C0
ENDCHAR

STARTCHAR Adieresis
ENCODING 196
SWIDTH 795 0
DWIDTH 10 0
BBX 10 11 0 0
BITMAP
1400
0000
0800
0C00
1C00
1600
2600
2300
7F00
4380
C3C0
ENDCHAR

STARTCHAR Aring
ENCODING 197
SWIDTH 795 0
DWIDTH 10 0
BBX 10 12 0 0
BITMAP
0C00
0C00
0000
0800
0C00
1C00
1600
2600
2300
7F00
4380
C3C0
ENDCHAR

STARTCHAR AE
ENCODING 198
SWIDTH 959 0
DWIDTH 12 0
BBX 11 9 0 0
BITMAP
07E0
0620
0E00
1640
17C0
2640
7E00
8620
CFE0
ENDCHAR

STARTCHAR Ccedilla
ENCODING 199
SWIDTH 711 0
DWIDTH 9 0
BBX 7 12 1 -3
BITMAP
3E
62
C2
C0
C0
C0
C0
62
3E
10
18
18
ENDCHAR

STARTCHAR Egrave
ENCODING 200
SWIDTH 601 0
DWIDTH 7 0
BBX 7 12 0 0
BITMAP
30
08
00
FE
62
60
64
7C
64
60
62
FE
ENDCHAR

STARTCHAR Eacute
ENCODING 201
SWIDTH 601 0
DWIDTH 7 0
BBX 7 12 0 0
BITMAP
18
20
00
FE
62
60
64
7C
64
60
62
FE
ENDCHAR

STARTCHAR Ecircumflex
ENCODING 202
SWIDTH 601 0
DWIDTH 7 0
BBX 7 12 0 0
BITMAP
18
24
00
FE
62
60
64
7C
64
60
62
FE
ENDCHAR

STARTCHAR Edieresis
ENCODING 203
SWIDTH 601 0
DWIDTH 7 0
BBX 7 11 0 0
BITMAP
28
00
FE
62
60
64
7C
64
60
62
FE
ENDCHAR

STARTCHAR Igrave
ENCODING 204
SWIDTH 349 0
DWIDTH 4 0
BBX 4 12 0 0
BITMAP
C0
20
00
F0
60
60
60
60
60
60
60
F0
ENDCHAR

STARTCHAR Iacute
ENCODING 205
SWIDTH 349 0
DWIDTH 4 0
BBX 4 12 0 0
BITMAP
30
40
00
F0
60
60
60
60
60
60
60
F0
ENDCHAR

STARTCHAR Icircumflex
ENCODING 206
SWIDTH 349 0
DWIDTH 4 0
BBX 4 12 0 0
BITMAP
60
90
00
F0
60
60
60
60
60
60
60
F0
ENDCHAR

STARTCHAR Idieresis
ENCODING 207
SWIDTH 349 0
DWIDTH 4 0
BBX 4 11 0 0
BITMAP
A0
00
F0
60
60
60
60
60
60
60
F0
ENDCHAR

STARTCHAR Eth
ENCODING 208
SWIDTH 794 0
DWIDTH 10 0
BBX 9 9 0 0
BITMAP
FE00
6300
6180
6180
6180
F980
6180
6300
FE00
ENDCHAR

STARTCHAR Ntilde
ENCODING 209
SWIDTH 788 0
DWIDTH 9 0
BBX 9 11 0 0
BITMAP
1E00
0000
C380
6100
7100
5900
5D00
4D00
4700
4300
E100
ENDCHAR

STARTCHAR Ograve
ENCODING 210
SWIDTH 810 0
DWIDTH 10 0
BBX 9 12 0 0
BITMAP
1800
0400
0000
3E00
6300
C180
C180
C180
C180
C180
6300
3E00
ENDCHAR

STARTCHAR Oacute
ENCODING 211
SWIDTH 810 0
DWIDTH 10 0
BBX 9 12 0 0
BITMAP
0C00
1000
0000
3E00
6300
C180
C180
C180
C180
C180
6300
3E00
ENDCHAR

STARTCHAR Ocircumflex
ENCODING 212
SWIDTH 810 0
DWIDTH 10 0
BBX 9 12 0 0
BITMAP
1800
2400
0000
3E00
6300
C180
C180
C180
C180
C180
6300
3E00
ENDCHAR

STARTCHAR Otilde
ENCODING 213
SWIDTH 810 0
DWIDTH 10 0
BBX 9 11 0 0
BITMAP
3C00
0000
3E00
6300
C180
C180
C180
C180
C180
6300
3E00
ENDCHAR

STARTCHAR Odieresis
ENCODING 214
SWIDTH 810 0
DWIDTH 10 0
BBX 9 11 0 0
BITMAP
1400
0000
3E00
6300
C180
C180
C180
C180
C180
6300
3E00
ENDCHAR

STARTCHAR multiply
ENCODING 215
SWIDTH 623 0
DWIDTH 7 0
BBX 7 7 0 0
BITMAP
82
44
28
10
28
44
82
ENDCHAR

STARTCHAR Oslash
ENCODING 216
SWIDTH 810 0
DWIDTH 10 0
BBX 9 9 0 0
BITMAP
3F80
6300
C380
C580
C980
D180
E180
6300
FE00
ENDCHAR

STARTCHAR Ugrave
ENCODING 217
SWIDTH 747 0
DWIDTH 9 0
BBX 9 12 0 0
BITMAP
1800
0400
0000
F380
6100
6100
6100
6100
6100
6100
7300
3E00
ENDCHAR

STARTCHAR Uacute
ENCODING 218
SWIDTH 747 0
DWIDTH 9 0
BBX 9 12 0 0
BITMAP
0C00
1000
0000
F380
6100
6100
6100
6100
6100
6100
7300
3E00
ENDCHAR

STARTCHAR Ucircumflex
ENCODING 219
SWIDTH 747 0
DWIDTH 9 0
BBX 9 12 0 0
BITMAP
0C00
1200
0000
F380
6100
6100
6100
6100
6100
6100
7300
3E00
ENDCHAR

STARTCHAR Udieresis
ENCODING 220
SWIDTH 747 0
DWIDTH 9 0
BBX 9 11 0 0
BITMAP
1400
0000
F380
6100
6100
6100
6100
6100
6100
7300
3E00
ENDCHAR

STARTCHAR Yacute
ENCODING 221
SWIDTH 717 0
DWIDTH 9 0
BBX 8 12 0 0
BITMAP
0C
10
00
F3
62
32
3C
1C
18
18
18
3C
ENDCHAR

STARTCHAR Thorn
ENCODING 222
SWIDTH 614 0
DWIDTH 7 0
BBX 7 9 0 0
BITMAP
F0
60
60
7C
66
66
66
7C
F0
ENDCHAR

STARTCHAR germandbls
ENCODING 223
SWIDTH 700 0
DWIDTH 8 0
BBX 8 9 0 0
BITMAP
3C
66
64
68
6C
66
63
6B
FE
ENDCHAR

STARTCHAR agrave
ENCODING 224
SWIDTH 556 0
DWIDTH 7 0
BBX 7 9 0 0
BITMAP
30
08
00
78
0C
7C
CC
CC
76
ENDCHAR

STARTCHAR aacute
ENCODING 225
SWIDTH 556 0
DWIDTH 7 0
BBX 7 9 0 0
BITMAP
18
20
00
78
0C
7C
CC
CC
76
ENDCHAR

STARTCHAR acircumflex
ENCODING 226
SWIDTH 556 0
DWIDTH 7 0
BBX 7 9 0 0
BITMAP
30
48
00
78
0C
7C
CC
CC
76
ENDCHAR

STARTCHAR atilde
ENCODING 227
SWIDTH 556 0
DWIDTH 7 0
BBX 7 8 0 0
BITMAP
78
00
78
0C
7C
CC
CC
76
ENDCHAR

STARTCHAR adieresis
ENCODING 228
SWIDTH 556 0
DWIDTH 7 0
BBX 7 8 0 0
BITMAP
28
00
78
0C
7C
CC
CC
76
ENDCHAR

STARTCHAR aring
ENCODING 229
SWIDTH 556 0
DWIDTH 7 0
BBX 7 9 0 0
BITMAP
30
30
00
78
0C
7C
CC
CC
76
ENDCHAR

STARTCHAR ae
ENCODING 230
SWIDTH 858 0
DWIDTH 10 0
BBX 10 6 0 0
BITMAP
7B80
4CC0
0CC0
7FC0
CC00
F7C0
ENDCHAR

STARTCHAR ccedilla
ENCODING 231
SWIDTH 541 0
DWIDTH 6 0
BBX 6 9 0 -3
BITMAP
7C
C4
C0
C0
E0
3C
20
30
30
ENDCHAR

STARTCHAR egrave
ENCODING 232
SWIDTH 568 0
DWIDTH 7 0
BBX 6 9 0 0
BITMAP
60
10
00
78
CC
CC
FC
C0
7C
ENDCHAR

STARTCHAR eacute
ENCODING 233
SWIDTH 568 0
DWIDTH 7 0
BBX 6 9 0 0
BITMAP
18
20
00
78
CC
CC
FC
C0
7C
ENDCHAR

STARTCHAR ecircumflex
ENCODING 234
SWIDTH 568 0
DWIDTH 7 0
BBX 6 9 0 0
BITMAP
30
48
00
78
CC
CC
FC
C0
7C
ENDCHAR

STARTCHAR edieresis
ENCODING 235
SWIDTH 568 0
DWIDTH 7 0
BBX 6 8 0 0
BITMAP
28
00
78
CC
CC
FC
C0
7C
ENDCHAR

STARTCHAR igrave
ENCODING 236
SWIDTH 325 0
DWIDTH 4 0
BBX 4 9 0 0
BITMAP
C0
20
00
E0
60
60
60
60
F0
ENDCHAR

STARTCHAR iacute
ENCODING 237
SWIDTH 325 0
DWIDTH 4 0
BBX 4 9 0 0
BITMAP
30
40
00
E0
60
60
60
60
F0
ENDCHAR

STARTCHAR icircumflex
ENCODING 238
SWIDTH 325 0
DWIDTH 4 0
BBX 4 9 0 0
BITMAP
60
90
00
E0
60
60
60
60
F0
ENDCHAR

STARTCHAR idieresis
ENCODING 239
SWIDTH 325 0
DWIDTH 4 0
BBX 4 8 0 0
BITMAP
A0
00
E0
60
60
60
60
F0
ENDCHAR

STARTCHAR eth
ENCODING 240
SWIDTH 652 0
DWIDTH 8 0
BBX 7 10 0 0
BITMAP
08
F0
38
6C
7E
C6
C6
C6
C4
78
ENDCHAR

STARTCHAR ntilde
ENCODING 241
SWIDTH 654 0
DWIDTH 8 0
BBX 8 8 0 0
BITMAP
3C
00
FE
66
66
66
66
FF
ENDCHAR

STARTCHAR ograve
ENCODING 242
SWIDTH 617 0
DWIDTH 7 0
BBX 7 9 0 0
BITMAP
30
08
00
7C
C6
C6
C6
C6
7C
ENDCHAR

STARTCHAR oacute
ENCODING 243
SWIDTH 617 0
DWIDTH 7 0
BBX 7 9 0 0
BITMAP
18
20
00
7C
C6
C6
C6
C6
7C
ENDCHAR

STARTCHAR ocircumflex
ENCODING 244
SWIDTH 617 0
DWIDTH 7 0
BBX 7 9 0 0
BITMAP
18
24
00
7C
C6
C6
C6
C6
7C
ENDCHAR

STARTCHAR otilde
ENCODING 245
SWIDTH 617 0
DWIDTH 7 0
BBX 7 8 0 0
BITMAP
3C
00
7C
C6
C6
C6
C6
7C
ENDCHAR

STARTCHAR odieresis
ENCODING 246
SWIDTH 617 0
DWIDTH 7 0
BBX 7 8 0 0
BITMAP
28
00
7C
C6
C6
C6
C6
7C
ENDCHAR

STARTCHAR divide
ENCODING 247
SWIDTH 623 0
DWIDTH 7 0
BBX 7 5 0 1
BITMAP
10
00
FE
00
10
ENDCHAR

STARTCHAR oslash
ENCODING 248
SWIDTH 617 0
DWIDTH 7 0
BBX 8 6 0 0
BITMAP
7F
C6
CE
F6
E6
FC
ENDCHAR

STARTCHAR ugrave
ENCODING 249
SWIDTH 654 0
DWIDTH 8 0
BBX 8 9 0 0
BITMAP
30
08
00
EE
66
66
66
66
7F
ENDCHAR

STARTCHAR uacute
ENCODING 250
SWIDTH 654 0
DWIDTH 8 0
BBX 8 9 0 0
BITMAP
0C
10
00
EE
66
66
66
66
7F
ENDCHAR

STARTCHAR ucircumflex
ENCODING 251
SWIDTH 654 0
DWIDTH 8 0
BBX 8 9 0 0
BITMAP
18
24
00
EE
66
66
66
66
7F
ENDCHAR

STARTCHAR udieresis
ENCODING 252
SWIDTH 654 0
DWIDTH 8 0
BBX 8 8 0 0
BITMAP
14
00
EE
66
66
66
66
7F
ENDCHAR

STARTCHAR yacute
ENCODING 253
SWIDTH 654 0
DWIDTH 8 0
BBX 8 12 0 -3
BITMAP
0C
10
00
F3
62
74
34
38
18
10
10
60
ENDCHAR

STARTCHAR thorn
ENCODING 254
SWIDTH 652 0
DWIDTH 8 0
BBX 8 11 0 -3
BITMAP
E0
60
7E
63
63
63
63
7E
60
60
F0
ENDCHAR

STARTCHAR ydieresis
ENCODING 255
SWIDTH 654 0
DWIDTH 8 0
BBX 8 11 0 -3
BITMAP
28
00
F3
62
74
34
38
18
10
10
60
ENDCHAR
ENDFONT
